<?xml version="1.0" standalone="no"?>
<!DOCTYPE svg PUBLIC "-//W3C//DTD SVG 20010904//EN"
 "http://www.w3.org/TR/2001/REC-SVG-20010904/DTD/svg10.dtd">
<svg version="1.0" xmlns="http://www.w3.org/2000/svg"
 width="512.000000pt" height="512.000000pt" viewBox="0 0 512.000000 512.000000"
 preserveAspectRatio="xMidYMid meet">
<metadata>
Created by potrace 1.14, written by Peter Selinger 2001-2017
</metadata>
<g transform="translate(0.000000,512.000000) scale(0.100000,-0.100000)"
fill="#000000" stroke="none">
<path d="M2475 5113 c-490 -14 -961 -161 -1313 -410 -182 -129 -416 -332 -529
-461 -82 -92 -190 -242 -267 -370 -181 -299 -292 -620 -342 -985 -26 -189 -23
-522 5 -702 46 -284 113 -499 236 -750 322 -659 911 -1145 1620 -1340 523
-143 1110 -112 1606 85 490 196 902 529 1194 965 177 265 312 587 376 897 66
323 66 713 0 1036 -100 483 -348 942 -700 1292 -499 496 -1178 763 -1886 743z
m460 -332 c677 -120 1247 -521 1579 -1111 145 -258 233 -526 277 -840 15 -110
15 -430 0 -540 -75 -541 -292 -974 -673 -1346 -560 -546 -1362 -758 -2123
-562 -385 99 -723 288 -1003 562 -380 371 -604 818 -673 1346 -16 122 -16 418
0 540 69 528 293 975 673 1346 353 344 812 563 1308 624 134 16 499 5 635 -19z"/>
<path d="M2290 4464 c-848 -123 -1505 -776 -1635 -1624 -23 -146 -23 -423 -1
-560 70 -426 251 -784 546 -1080 533 -532 1331 -705 2034 -441 650 245 1116
821 1227 1521 18 109 18 428 1 540 -67 435 -249 799 -551 1100 -370 368 -843
562 -1366 559 -88 -1 -203 -7 -255 -15z m535 -810 c142 -206 267 -380 279
-385 11 -5 212 -66 446 -134 234 -69 428 -126 433 -128 4 -1 -121 -159 -278
-351 l-285 -349 0 -101 c0 -56 5 -261 11 -458 6 -196 9 -363 7 -371 -2 -12
-89 12 -433 119 -236 73 -437 133 -446 134 -8 0 -210 -70 -449 -155 -239 -85
-436 -153 -438 -151 -2 2 1 165 7 362 6 198 11 408 13 468 l2 108 -255 331
c-301 391 -313 407 -308 412 3 2 204 63 449 135 244 72 445 132 446 133 1 1
120 174 264 385 144 210 265 380 270 377 5 -3 124 -174 265 -381z"/>
</g>
</svg>
